/* XPM */
static char *player[] = {
/* columns rows colors chars-per-pixel */
"64 64 6 1 ",
"  c None",
". c #181818",
"X c #885038",
"o c #D08860",
"O c #F8D098",
"+ c #F8F0E0",
/* pixels */
"                                                                ",
"                                                                ",
"                                                                ",
"                                                                ",
"                                                                ",
"                                                                ",
"                                                                ",
"                                                                ",
"                                                                ",
"                                                                ",
"                                                                ",
"                                                                ",
"                                                                ",
"                                                                ",
"                                                                ",
"                                                                ",
"                                                                ",
"                                                                ",
"                                                                ",
"                                                                ",
"                                                                ",
"                                ooXXXX                          ",
"                               oOOOOooX                         ",
"                              oOOOOOOooX                        ",
"                              oOOOOOOooX                        ",
"                              XOOOOOOooX                        ",
"                             oXOOOOOoooXX                       ",
"                             OooOOOoooX.X                       ",
"                             OOoXXooXXX..                       ",
"                             oOo+.oo.+...                       ",
"                              oX+.oO.+..                        ",
"                               XooOOOo.                         ",
"                              XXXoOOo.X                         ",
"                             XOOoXXX.XoX                        ",
"                             XOOoXoooXoo                        ",
"                            XOOoXoOOOXooX                       ",
"                            XOOX.oOOO.XoX.                      ",
"                            .Ooo.XOOo.XXX.                      ",
"                            .XoOO.ooX..XX.                      ",
"                             .OOO.XXXX...                       ",
"                             .OOO.XooX.                         ",
"                              ..XoXoooX                         ",
"                              .Xoo.oOOoX                        ",
"                              .Xoo.oOOo.                        ",
"                              .XXXXXoOo.                        ",
"                               .XXXooo.                         ",
"                                ..XoOoX                         ",
"                                                                ",
"                                                                ",
"                                                                ",
"                                                                ",
"                                                                ",
"                                                                ",
"                                                                ",
"                                                                ",
"                                                                ",
"                                                                ",
"                                                                ",
"                                                                ",
"                                                                ",
"                                                                ",
"                                                                ",
"                                                                ",
"                                                                "
};
