/* XPM */
static char *coins_new[] = {
/* columns rows colors chars-per-pixel */
"64 64 256 2 ",
"   c #000000",
".  c #010101",
"X  c #020202",
"o  c #030303",
"O  c #040404",
"+  c #050505",
"@  c #060606",
"#  c #070707",
"$  c #080808",
"%  c #090909",
"&  c #0A0A09",
"*  c #0A0A0A",
"=  c #0B0B0A",
"-  c #0B0B0B",
";  c #0C0C0C",
":  c #0D0D0D",
">  c #0E0E0E",
",  c #0F0F0E",
"<  c #0F0F0F",
"1  c #10100F",
"2  c #101010",
"3  c #111111",
"4  c #121211",
"5  c #121212",
"6  c #131312",
"7  c #131313",
"8  c #141413",
"9  c #141414",
"0  c #151515",
"q  c #161616",
"w  c #171717",
"e  c #181818",
"r  c #191918",
"t  c #191919",
"y  c #1A1A19",
"u  c #1A1A1A",
"i  c #1B1B1B",
"p  c #1C1C1B",
"a  c #1C1C1C",
"s  c #1D1D1D",
"d  c #1E1E1E",
"f  c #1F1F1F",
"g  c #20201F",
"h  c #202020",
"j  c #212121",
"k  c #222221",
"l  c #222222",
"z  c #232322",
"x  c #232323",
"c  c #242423",
"v  c #242424",
"b  c #252525",
"n  c #262626",
"m  c #272726",
"M  c #272727",
"N  c #282827",
"B  c #282828",
"V  c #292928",
"C  c #292929",
"Z  c #2A2A2A",
"A  c #2B2B2B",
"S  c #2C2C2B",
"D  c #2C2C2C",
"F  c #2D2D2C",
"G  c #2D2D2D",
"H  c #2E2E2E",
"J  c #2F2F2E",
"K  c #2F2F2F",
"L  c #30302F",
"P  c #303030",
"I  c #313131",
"U  c #323231",
"Y  c #323232",
"T  c #333333",
"R  c #343433",
"E  c #343434",
"W  c #353535",
"Q  c #363634",
"!  c #373735",
"~  c #363636",
"^  c #373737",
"/  c #383836",
"(  c #383838",
")  c #393939",
"_  c #3A3A3A",
"`  c #3B3B3B",
"'  c #3C3C3B",
"]  c #3D3D3B",
"[  c #3C3C3C",
"{  c #3D3D3D",
"}  c #3E3E3C",
"|  c #3E3E3E",
" . c #3F3F3F",
".. c #404040",
"X. c #414141",
"o. c #424242",
"O. c #434343",
"+. c #444444",
"@. c #454545",
"#. c #464644",
"$. c #464645",
"%. c #464646",
"&. c #474747",
"*. c #484846",
"=. c #484848",
"-. c #494949",
";. c #4A4A4A",
":. c #4B4B4B",
">. c #4C4C4C",
",. c #4D4D4D",
"<. c #4E4E4C",
"1. c #4E4E4E",
"2. c #4F4F4F",
"3. c #505050",
"4. c #515151",
"5. c #525252",
"6. c #535353",
"7. c #545454",
"8. c #555555",
"9. c #565656",
"0. c #575757",
"q. c #585858",
"w. c #595959",
"e. c #5A5A5A",
"r. c #5B5B5B",
"t. c #5C5C5C",
"y. c #5D5D5D",
"u. c #5E5E5E",
"i. c #5F5F5F",
"p. c #60605D",
"a. c #616161",
"s. c #636360",
"d. c #636363",
"f. c #646463",
"g. c #646464",
"h. c #656565",
"j. c #676764",
"k. c #666666",
"l. c #676767",
"z. c #686865",
"x. c #686868",
"c. c #696969",
"v. c #6A6A68",
"b. c #6A6A6A",
"n. c #6B6B6B",
"m. c #6D6D6B",
"M. c #6C6C6C",
"N. c #6D6D6D",
"B. c #6E6E6E",
"V. c #6F6F6F",
"C. c #707070",
"Z. c #717171",
"A. c #727270",
"S. c #737370",
"D. c #727272",
"F. c #737373",
"G. c #757573",
"H. c #747474",
"J. c #767676",
"K. c #777777",
"L. c #787875",
"P. c #787878",
"I. c #797979",
"U. c #7A7A7A",
"Y. c #7B7B7B",
"T. c #7C7C79",
"R. c #7C7C7C",
"E. c #7D7D7C",
"W. c #7D7D7D",
"Q. c #7E7E7E",
"!. c #7F7F7F",
"~. c #80807D",
"^. c #81817E",
"/. c #808080",
"(. c #818181",
"). c #838380",
"_. c #828282",
"`. c #838383",
"'. c #848484",
"]. c #858584",
"[. c #858585",
"{. c #868686",
"}. c #878787",
"|. c #888885",
" X c #898986",
".X c #888888",
"XX c #898989",
"oX c #8A8A8A",
"OX c #8C8C8C",
"+X c #8D8D8D",
"@X c #8E8E8E",
"#X c #8F8F8F",
"$X c #92928F",
"%X c #909090",
"&X c #919191",
"*X c #929292",
"=X c #939393",
"-X c #949494",
";X c #959595",
":X c #969696",
">X c #9A9A97",
",X c #989898",
"<X c gray60",
"1X c #9A9A9A",
"2X c #9E9E9A",
"3X c #9C9C9C",
"4X c #9D9D9D",
"5X c #9E9E9E",
"6X c #A0A0A0",
"7X c #A1A1A1",
"8X c #A2A2A2",
"9X c #A6A6A2",
"0X c #A4A4A4",
"qX c #A9A9A5",
"wX c #AAAAA6",
"eX c #A8A8A8",
"rX c #A9A9A9",
"tX c #AAAAAA",
"yX c #ACACAA",
"uX c #ACACAC",
"iX c #B3B3AF",
"pX c #B1B1B1",
"aX c #B2B2B2",
"sX c #B3B3B3",
"dX c #B6B6B2",
"fX c #B6B6B6",
"gX c #B7B7B7",
"hX c #B9B9B9",
"jX c #BBBBB9",
"kX c #BCBCB8",
"lX c #BEBEBE",
"zX c #C1C1C1",
"xX c #C2C2C2",
"cX c #C7C7C7",
"vX c #CECECA",
"bX c #CCCCCC",
"nX c #D2D2CF",
"mX c #D4D4CF",
"MX c #D1D1D1",
"NX c #D2D2D2",
"BX c #D6D6D1",
"VX c #D4D4D4",
"CX c #D9D9D9",
"ZX c #DBDBDB",
"AX c #DDDDD9",
"SX c #DDDDDB",
"DX c #DEDEDE",
"FX c #E0E0DA",
"GX c #E1E1E1",
"HX c #E3E3E3",
"JX c #E6E6E1",
"KX c #E8E8E8",
"LX c #F2F2EC",
"PX c #FDFDF7",
"IX c #F9F9F9",
"UX c None",
/* pixels */
"UXUXUXUXUXUXUXUXUXUXUXUXUXUXUXUXUXUXUXUXUXUXUXUXUXUXUXUXUXUXUXUXUXUXUXUXUXUXUXUXUXUXUXUXUXUXUXUXUXUXUXUXUXUXUXUXUXUXUXUXUXUXUXUX",
"UXUXUXUXUXUXUXUXUXUXUXUXUXUXUXUXUXUXUXUXUXUXUXUXUXUXUXUXUXUXUXUXUXUXUXUXUXUXUXUXUXUXUXUXUXUXUXUXUXUXUXUXUXUXUXUXUXUXUXUXUXUXUXUX",
"UXUXUXUXUXUXUXUXUXUXUXUXUXUXUXUXUXUXUXUXUXUXUXUXUXUXUXUXUXUXUXUXUXUXUXUXUXUXUXUXUXUXUXUXUXUXUXUXUXUXUXUXUXUXUXUXUXUXUXUXUXUXUXUX",
"UXUXUXUXUXUXUXUXUXUXUXUXUXUXUXUXUXUXUXUXUXUXUXUXUXUXUXUXUXUXUXUXUXUXUXUXUXUXUXUXUXUXUXUXUXUXUXUXUXUXUXUXUXUXUXUXUXUXUXUXUXUXUXUX",
"UXUXUXUXUXUXUXUXUXUXUXUXUXUXUXUXUXA m.T.p UXUXUXUXUX      UXUXUXUXUXUXUXUXUXUXUXUXUXUXUXUXUXUXUXUXUXUXUXUXUXUXUXUXUXUXUXUXUXUXUX",
"UXUXUXUXUXUXUXUXUXUXUXUXUXUXUXUXUXz.mXLX/     UXUXUX                UXUXUXUXUXUXUXUXUXUXUXUXUXUXUXUXUXUXUXUXUXUXUXUXUXUXUXUXUXUX",
"UXUXUXUXUXUXUXUXUXUXUXUXUXUXUXUXUXG z.l.w       UXUX              w w UXUXUX      UXUXUXUXUXUXUXUXUXUXUXUXUXUXUXUXUXUXUXUXUXUXUX",
"UXUXUXUXUXUXUXUXUXUXUXUXUXUXUXUXUX  - O   UXUX    UXUXUXUX        A i.; UX  @ % @   UXUXUXUXUXUXUXUXUXUXUXUXUXUXUXUXUXUXUXUXUXUX",
"UXUXUXUXUXUXUXUXUXUXUXUXUXUXUXUX                  UXUXUX          i -.%   @ i.,.% UXUXUXUXUXUXUXUXUXUXUXUXUXUXUXUXUXUXUXUXUXUXUX",
"UXUXUXUXUXUXUXUXUXUX        UX  @ N / %       UXUXUXUX..uX+Xw       % 2 v 2 Y G @ UXUXUXUXUXUX  UXUXUXUXUXUXUXUXUXUXUXUXUXUXUXUX",
"UXUXUXUXUXUXUXUXUX      UX      L.DXa.% O   UXUXUXUXUXG 7XAXN         [ hXF.w     UXUXUXUXUX        UX  UXUXUXUXUXUXUXUXUXUXUXUX",
"UXUXUXUXUXUXUXUXUX      UX  UX  2 %   Y -.  UX      UX  w h @ UXUX    a -.i.n.x UXUXUXUXUX  a -.h           UXUXUXUXUXUXUXUXUXUX",
"UXUXUXUXUXUXUXUXUX        UXUXUX      i A i @   @ w 2 @ UX  UXUX          ,..XA UXUXUXUXUX  ,.MXn.          UXUXUXUXUXUXUXUXUXUX",
"UXUXUXUXUXUXUXUXUXUX    UXUXUXUX        @.oXG   i B.F.a   UXUXUX          2 w @     UXUXUX2 n.HXB.  % a @   UXUXUXUXUXUXUXUXUXUX",
"UXUXUXUXUXUXUXUXUXUXUXUXUXUXUXUXUX  UX  }.tX,.  2 r.B.a     UXUX    ; 2   UX    i Y w UXUXUXv a.[ ; -.oX2   UXUXUXUXUXUXUXUXUXUX",
"UXUXUXUXUXUXUXUXUXUXUXUXUXUXUXUXUXUXUX  h -.`     ; ;   i ;   UX  @ w a         ^ `.G UXUX        ; }.cXv   UXUXUXUXUXUXUXUXUXUX",
"UXUXUXUXUXUXUXUXUXUXUX        UXUX  ; Y @ % Y i @.2     @.a ;             % -.A 2 [ UXUX            ` l.a   UXUXUXUXUX  UXUXUXUX",
"UXUXUXUXUXUXUXUXUXUXUX            ; w i.;   ; v r.; UX  h ; %             % [ v % %             UX    % / S.p.UXUXUX        UXUX",
"UXUXUXUXUXUXUXUXUXUXUXUX        2 0.r.A @   UXUXw                           w 2 % ` ;           UXUXUX  Q.JX*X  UXUX  UXUX  UXUX",
"UXUXUXUXUXUXUXUXUXUXUXUXUX      ..+X*X..@ UXUX    @ % UXUX  /.-.            @ @   ;                     a  Xp.  UXUX  UX    UXUX",
"UXUXUXUXUXUXUX  UXUXUXUXUX      Y B.l.i UXUX    v F.` UXUX  xXDX,.  UXUX    UX      @ n.+Xf.          % a ; % UXUXUXUXUXUXUXUXUX",
"UXUXUXUXUXUX  UX  UXUXUX                @       @ ;       @ G n.@ w @ UXUX          UX% A @         0.DXn.@ UXUXUXUXUXUXUXUXUXUX",
"UXUXUXUXUX        UXUXUX@ ;     @ 8 ; O @.  UX      UX  % U.^   ; -X,.      % A ; UXUXUXUXUXUXUXUX  A /.2   UXUXUXUXUXUXUXUXUXUX",
"UXUXUXUXUX      UXUXUX  @ 2 % % c >XS.2 ;               -.bXU.@ @ ..Y       Y H.a   UXUXUX@                 UXUXUXUXUXUXUXUXUXUX",
"UXUXUXUXUX      UXUX      @ i w Y wX^.2 UXUXUX          ` F.Y @ % /.n.      @ h e   UX  ; G         UXUXUX    UXUXUXUXUXUXUXUXUX",
"UXUXUXUX          A @.i     2 h ; R A @ UXUXUX  %       G 2 @ UX% ..A         a G %     1 ^           UX  @ A     UXUXUXUXUXUXUX",
"UXUXUXUX          ,.gXi.    v ..% $ q.[ @ UX  @ i       2 @               w 2 w w               % ^ L #   w B.    UXUXUXUXUXUXUX",
"UXUXUXUX        UXi l.[     ; w   i 5XR.;     @ ; a Y %                 h /.n.2             ; h G oX<XA   % Y     UXUXUXUXUXUXUX",
"UXUXUXUXUX    UXUX  ; UXUX  2 w   - / A @     % ; 5.*XY     ; w       ; A -XlX^             Y }.-.-.r.w   w 2   UXUXUXUXUXUXUXUX",
"UXUXUXUXUX          UXUX    @ %           F.A % i ,.U.G v ; @ i.,.% 0.Q.G a ^ 2     UXUX    v q.h # ; ..@.2 % UXUXUXUXUXUXUXUXUX",
"UXUXUXUXUX  h G % UXUXUX  i [             gXw   @ % 2 -.-XA   2 2 % ..5.h h v % UX          ; i O   Y /.$XA   UXUXUXUXUXUXUXUXUX",
"UXUXUXUXUXG aX5Xa UXUX    2 v             a @ ^ a.w   a i 2   r.^ i -X}.; ,.5.% UXUXUX      i Y ;   O.+X>XA   UXUXUXUXUXUXUXUXUX",
"UXUXUXUXUXw ^ Y % UXUX; 0.v ^ ;               G +X@.    v ..1 ^ ^       @ @     UXUXUXUX            i U.Q.@       UXUXUXUXUXUXUX",
"UXUXUXUXUX        @   @ @.U.@.% UX  w %         % w     a.*X..@ @ ..; @ %         UXUXUX            @ w 2           UXUXUXUXUXUX",
"UXUXUXUXUXUX      w   ; v v %   UX; F.` @     2 v ;     G ,.w   a 5Xi 2 ;         UXUXUXUX        ; Y %             UXUXUXUXUXUX",
"UXUXUXUXUXUX  % h @   a a.B.a     @ ` w       `  XY       % 1   Y @.@ a w                           A ;   UX        UXUXUXUXUXUX",
"UXUXUXUXUXUX  ; ^ %     @ 2 ;     @ ;       @ Y i.a   2 ; 2 e                                           UXUX      UXUXUXUXUXUXUX",
"UXUXUXUXUXUXUX                    ; -.A @   % ,.`   f U.B.w     UXUX        h @.i @       UX  O G i.5.i UX      UXUXUXUXUXUXUXUX",
"UXUXUXUXUXUXUXUXUXUXUX          2 h @.h   UXUXv w   ^ hX}.2             % % i.7XG             % n.xX0Xa   UXUX  UXUXUXUXUXUXUXUX",
"UXUXUXUXUXUXUXUXUXUXUX    %   @ ; ; ; @   UXUXw U./.^ ' h       UX@ h   % % Y ,.2             @ ..+Xa.2     UX  UXUXUXUXUXUXUXUX",
"UXUXUXUXUXUXUXUXUXUXUX  w -.  @ 5.,.%     UX  G MXGX*XY @ 5.w     w U.@.    w i O UX    UX      ; i ; n.i.O     UXUXUXUXUXUXUXUX",
"UXUXUXUXUXUXUXUXUXUXUX    ;     h i @ UXUX@ @.a ^ l.5X/.i ..2     w B.@.UX- ^.wXh UX    UX    UXUX    r./     UXUXUXUXUXUXUXUXUX",
"UXUXUXUXUXUXUXUXUXUXUXUX    % @     UXUX  2 *XU.A @ % %         UX@ a     i 9XuXg UX          UXUXUX  @     UXUXUXUXUXUXUXUXUXUX",
"UXUXUXUXUX      UXUXUXUX% l.FX Xw     h 2 O ..H.v @ @   UXUXUXUX  w i.i               UXUXUXUXUXUXUXUXUX      UXUXUXUXUXUXUXUXUX",
"UXUXUXUXUX        UXUXUXw F.a.Y a     % w     % % Y v   UX      ; i   @ 2 w % UX  % h i 2 UXUXUXUX  % a @       UXUXUXUXUXUXUXUX",
"UXUXUXUXUX        UXUXUX  % [ <X5.@             % G v   UX            i l.Q...2   c aX-X..  UXUX    -.tX-.  O 1 % UXUXUXUXUXUXUX",
"UXUXUXUXUX        UXUXUX  @ a 5.i.h                   UXUX  UXUX    ; G n.*Xr.w   % 7X+X2 UXUXUX    -XCX`.$ @.^.,.- UXUXUXUXUXUX",
"UXUXUXUXUXUX      UXUX  % ` A ` 7X,.@         UXUXUXUXUXUX; i   @   G 5.G @.i     1 ' % UXUXUXUX    [ 0.h 2 mXPXiXg UXUXUXUXUXUX",
"UXUXUXUXUXUXUXUXUXUXUX  2 0.[ w @.v     UX      UXUXUXUX  ..h [ ^   i G       ; Y [ i   UX    UXUX        2 wXnXA.; UXUXUXUXUXUX",
"UXUXUXUXUXUXUXUXUXUXUX  @ w ;   UX    UX    i l.w     UX  ` ; 5X<X^ h ;     2 0./.oXn.          UXUXUXUXUXUXc [ i UXUXUXUXUXUXUX",
"UXUXUXUXUXUXUXUXUXUXUXUXUX  UXUXUXUXUX      r.VXr.%   UX  % O U.oXY l.Y     ^ }.<X<X*X      UX  UXUXUXUXUXUXUXUXUXUXUXUXUXUXUXUX",
"UXUXUXUXUXUXUXUXUXUXUXUXUXUXUXUXUXUXUX    @ G 7XU.i   UX      2 h % G ;     i i.U.H.@.  UX  UX  UXUXUXUXUXUXUXUXUXUXUXUXUXUXUXUX",
"UXUXUXUXUXUXUXUXUXUXUXUXUXUXUXUXUXUXUXUX    @ 2 ; @ UX    %   i tX% @ UX  UX  % ; w @ UXUX      UXUXUXUXUXUXUXUXUXUXUXUXUXUXUXUX",
"UXUXUXUXUXUXUXUXUXUXUXUXUXUXUXUXUXUXUX    UXUXUXUXUXUX    ,.n.; @         UXUXUX  UXUXUXUXUXUXUXUX    UXUXUXUXUXUXUXUXUXUXUXUXUX",
"UXUXUXUXUXUXUXUXUXUXUXUXUXUXUXUXUXUXUXUXUXUXUXUXUXUXUX      %       UXUXUXUXUXUXUXUXUXUXUXUXUXUX    UX  UXUXUXUXUXUXUXUXUXUXUXUX",
"UXUXUXUXUXUXUXUXUXUXUXUXUXUXUXUXUXUXUXUXUXUXUXUXUXUXUX            UXUXUXUXUXUXUXUXUXUXUXUXUXUXUXUXUXUX  UXUXUXUXUXUXUXUXUXUXUXUX",
"UXUXUXUXUXUXUXUXUXUXUXUXUXUXUXUXUXUXUX  G A   UXUXUX              UXUXUXUX% @     UXUXUXUXUXUXUXUXUXUX  UXUXUXUXUXUXUXUXUXUXUXUX",
"UXUXUXUXUXUXUXUXUXUXUXUXUXUXUXUXUXUXUXh aXaXY   UX        % ' @.@ UXUXUXUX        UXUXUXUXUXUXUXUXUX    UXUXUXUXUXUXUXUXUXUXUXUX",
"UXUXUXUXUXUXUXUXUXUXUXUXUXUXUXUXUXUXUX` KXIXoX  UXUX  UXUX^ kXBXG UXUXUXUXUX      UXUXUXUXUXUXUXUXUXUXUXUXUXUXUXUXUXUXUXUXUXUXUX",
"UXUXUXUXUXUXUXUXUXUXUXUXUXUXUXUXUXUXUX; /.tX,.        UXUXN 2XdXc UXUXUXUXUXUXUXUXUXUXUXUXUXUXUXUXUXUXUXUXUXUXUXUXUXUXUXUXUXUXUX",
"UXUXUXUXUXUXUXUXUXUXUXUXUXUXUXUXUXUXUXUXUXUXUXUXUXUXUXUXUXUXUXUXUXUXUXUXUXUXUXUXUXUXUXUXUXUXUXUXUXUXUXUXUXUXUXUXUXUXUXUXUXUXUXUX",
"UXUXUXUXUXUXUXUXUXUXUXUXUXUXUXUXUXUXUXUXUXUXUXUXUXUXUXUXUXUXUXUXUXUXUXUXUXUXUXUXUXUXUXUXUXUXUXUXUXUXUXUXUXUXUXUXUXUXUXUXUXUXUXUX",
"UXUXUXUXUXUXUXUXUXUXUXUXUXUXUXUXUXUXUXUXUXUXUXUXUXUXUXUXUXUXUXUXUXUXUXUXUXUXUXUXUXUXUXUXUXUXUXUXUXUXUXUXUXUXUXUXUXUXUXUXUXUXUXUX",
"UXUXUXUXUXUXUXUXUXUXUXUXUXUXUXUXUXUXUXUXUXUXUXUXUXUXUXUXUXUXUXUXUXUXUXUXUXUXUXUXUXUXUXUXUXUXUXUXUXUXUXUXUXUXUXUXUXUXUXUXUXUXUXUX"
};
