/* XPM */
static char *pit_new[] = {
/* columns rows colors chars-per-pixel */
"64 64 84 1 ",
"  c #000000",
". c #010101",
"X c #020202",
"o c #030303",
"O c #040404",
"+ c #050505",
"@ c #060606",
"# c #070707",
"$ c #080808",
"% c #090909",
"& c #0A0A0A",
"* c #0B0B0B",
"= c #0C0C0C",
"- c #0D0D0D",
"; c #0E0E0E",
": c #0F0F0F",
"> c #101010",
", c #111111",
"< c #121212",
"1 c #131313",
"2 c #141414",
"3 c #151515",
"4 c #161616",
"5 c #171717",
"6 c #181818",
"7 c #191919",
"8 c #1A1A1A",
"9 c #1B1B1B",
"0 c #1C1C1C",
"q c #1D1D1D",
"w c #1E1E1E",
"e c #1F1F1F",
"r c #202020",
"t c #212121",
"y c #222222",
"u c #232323",
"i c #242424",
"p c #252525",
"a c #262626",
"s c #272727",
"d c #282828",
"f c #292929",
"g c #2A2A2A",
"h c #2B2B2B",
"j c #2C2C2C",
"k c #2D2D2D",
"l c #2E2E2E",
"z c #2F2F2F",
"x c #303030",
"c c #313131",
"v c #323232",
"b c #333333",
"n c #343434",
"m c #353535",
"M c #363636",
"N c #373737",
"B c #383838",
"V c #393939",
"C c #3A3A3A",
"Z c #3B3B3B",
"A c #3C3C3C",
"S c #3D3D3D",
"D c #3E3E3E",
"F c #3F3F3F",
"G c #404040",
"H c #414141",
"J c #424242",
"K c #434343",
"L c #444444",
"P c #454545",
"I c #464646",
"U c #474747",
"Y c #484848",
"T c #494949",
"R c #4A4A4A",
"E c #4C4C4C",
"W c #4F4F4F",
"Q c #505050",
"! c #525252",
"~ c #535353",
"^ c #545454",
"/ c #555555",
"( c #565656",
") c #585858",
/* pixels */
"                                                                ",
"                                                                ",
"                                                                ",
"          +,,:,::::,22,,,,2,,,,,,,:$:$:::$+++$$+$$$$::          ",
"          +DKKDDDCNCKDDDDCCCNCCNccclllccclaawllllccNC2          ",
"           l~)^~~YYYPPPPKKKDDDCDccDKDDDKKKKKCYYEE~^^l+          ",
"           +lYPDNNcNNNCNNNNNNDCNllCCCCCDDDDKDPPPYYPN$           ",
"            $2,,:226666262266666,:26w66wwww6rrrr622$            ",
"             $fNNcNcwllllfffffffwrafffffll6allNccl:             ",
"              2CKDDCwNNNcNcccclcrrclclcccc2NNCCDDr              ",
"    ,6+       +wa6,,:$+  + + ++++  $::::::,6wflca$        ++    ",
"    2l,        ,lclla,w,:$+$$,$$,,$$$   +                $a,    ",
"    2l,+                 +$                  +          $fD,    ",
"    2l,6$                                    $$+       +rPC,    ",
"    ,f,w$                                              ,CPN:    ",
"    :a,2$  +         ++++$+$++            +           ,6CPN,    ",
"    $lw:+  :$      ++$$+$:$$$+            +$:$       ,l6NPN:    ",
"    $f6,+  2:       +++ + +                +++       fl2cKc:    ",
"    $a26$  ,                                      +  wl2cDc:    ",
"    $a22+  :                                      $  6l2cCl:    ",
"    +r22$  ,                                      $  6f,fCa+    ",
"     622+  ,                                      +  2l2rl,     ",
"     2,,$  $                                         ,f26r2$    ",
"     $$+   ,                                         :r,2lf:    ",
"     ,:+   :                                         +,:rNf:    ",
"     :$+   :                                         +w2wca:    ",
"     ::    ,                                         $r2rca$    ",
"     :$    2                                         :a2wla:    ",
"     ,:    ,                                         $a2wla$    ",
"     ,$    $                                         :r,6la$    ",
"     :$   $                                          $w,wlr:    ",
"     ,:   +                                          ,w,wfa$    ",
"     2,                                              ,r,wlr:    ",
"     2,                                              ,w,6lw+    ",
"     ,: $+                                           ,w2wlw+    ",
"     2, ::                                           ,w,6l6+    ",
"     2, :$                                           2w,6lw+    ",
"    +62 ,+                                          +,r2rlw+    ",
"    +r, ,+                                          +:62rlw+    ",
"    $r2 ,+                                          +$$$2aw+    ",
"    $a2 ,+                                          $2w,,,$+    ",
"    $a2 ,                                          +$6r2rl6+    ",
"    +r6 $+                                         $$wa2alw+    ",
"    +a6                                            +$6f2acr+    ",
"    +2,                                  +           wa6acr+    ",
"    $aw++                                          + 6f6fNr+    ",
"    :cr+2: +                                       $ 2l6fNr$    ",
"    :ca+r,         +       +                  +    + 2lwlNa$    ",
"    :cf$,+                 +            +     +      ,fflNa+    ",
"    :Nl$+                              ++$+          +,6lDf$    ",
"    ,Nl$        $$$++                  ++ +     +$+    +6Nf$    ",
"    ,a,          + +                             $$     +,2+    ",
"    ++         $$$+$$   +$:$:$:    ++$+$$::$$:2wafl,      +     ",
"              ,lla2rarw622222,:$:$$$$+   $:$  :,6266+           ",
"             +alf2wafar,wwwww6w:w66www26rraar:,llcccr           ",
"            +:666,6w662:,,:::::+::,226226wwwr2$wfar2:,+         ",
"           :afr6266662,,22,,,,,:,,,,,,,:,22222::26rfNDw         ",
"          :cKKDCNNNccclllfaffaa2aaaaaaf6alllccr2lCDDKPD2        ",
"         2NPPPKDDDCNNcccllllflfrfffflflwallccNl6rCDKKKDa        ",
"         ,rlffclccccNNNcccclllllllllllcfrcclclcr2alfr62:+       ",
"          ++$$:$:::,2266666w66626662:,,,::,,::::+$:+            ",
"                      +++  + +++++                              ",
"                                                                ",
"                                                                "
};
