/* XPM */
static char *player_new[] = {
/* columns rows colors chars-per-pixel */
"64 64 156 2 ",
"   c #181817",
".  c #1A1A19",
"X  c #211D1B",
"o  c #22201D",
"O  c #2C221E",
"+  c #32251F",
"@  c #2A2722",
"#  c #352721",
"$  c #372A23",
"%  c #3B2B23",
"&  c #3E352C",
"*  c #432E24",
"=  c #4B3227",
"-  c #433229",
";  c #4B3529",
":  c #453A2F",
">  c #4C392D",
",  c #523629",
"<  c #55392C",
"1  c #5C3B2C",
"2  c #4A3D31",
"3  c #423D39",
"4  c #5C3F30",
"5  c #623D2E",
"6  c #603F30",
"7  c #4C433C",
"8  c #5E4131",
"9  c #5A4539",
"0  c #5B4939",
"q  c #68402F",
"w  c #654534",
"e  c #6D4431",
"r  c #6C4B39",
"t  c #724532",
"y  c #7C4B35",
"u  c #734D39",
"i  c #7D553F",
"p  c #4C4843",
"a  c #5E5140",
"s  c #58514A",
"d  c #604B40",
"f  c #6A5340",
"g  c #6D5D48",
"h  c #725641",
"j  c #765F50",
"k  c #76654D",
"l  c #79674F",
"z  c #824D37",
"x  c #854F38",
"c  c #83533B",
"v  c #8A523A",
"b  c #8C583E",
"n  c #90573D",
"m  c #93593F",
"M  c #845C44",
"N  c #8D5C42",
"B  c #955C41",
"V  c #995E42",
"C  c #9D6245",
"Z  c #97644A",
"A  c #9A6549",
"S  c #9F6A4C",
"D  c #826F54",
"F  c #906E52",
"G  c #9E6F53",
"H  c #877156",
"J  c #9A7759",
"K  c #927C5E",
"L  c #A26547",
"P  c #A56748",
"I  c #A46B4C",
"U  c #AB6C4C",
"Y  c #B06F4E",
"T  c #AF704F",
"R  c #B1714F",
"E  c #A66F51",
"W  c #A47353",
"Q  c #AA7352",
"!  c #A17959",
"~  c #AD7C5A",
"^  c #B47553",
"/  c #B97653",
"(  c #B57956",
")  c #BC7955",
"_  c #B27E5A",
"`  c #836F61",
"'  c #977F60",
"]  c #827C74",
"[  c #C07C57",
"{  c #C27E59",
"}  c #B4825E",
"|  c #BE815C",
" . c #B38661",
".. c #B88467",
"X. c #B3966F",
"o. c #BE976F",
"O. c #B59672",
"+. c #C4815B",
"@. c #CB855E",
"#. c #C28660",
"$. c #CE8760",
"%. c #C68F67",
"&. c #CE8A62",
"*. c #C08F68",
"=. c #D28B63",
"-. c #C4956C",
";. c #CE9269",
":. c #C7986E",
">. c #C8996F",
",. c #D49167",
"<. c #D5956A",
"1. c #D8976C",
"2. c #D4986D",
"3. c #D99A6E",
"4. c #C39F75",
"5. c #CC9D72",
"6. c #CB9B7C",
"7. c #D49F73",
"8. c #DB9E71",
"9. c #CEA074",
"0. c #C4A579",
"q. c #C9A77B",
"w. c #CDAC7F",
"e. c #D2A074",
"r. c #DDA375",
"t. c #D3A678",
"y. c #DEA778",
"u. c #DEA97A",
"i. c #E1A778",
"p. c #E3AC7C",
"a. c #E6B07F",
"s. c #AF9988",
"d. c #B49E8D",
"f. c #D0A485",
"g. c #DDB383",
"h. c #C7A791",
"j. c #E5B180",
"k. c #E9B583",
"l. c #E6B986",
"z. c #EBB986",
"x. c #E6BD8A",
"c. c #EBBC89",
"v. c #C4B9AA",
"b. c #DBBAA1",
"n. c #C4BDB0",
"m. c #EEC18D",
"M. c #F1C38E",
"N. c #EEC691",
"B. c #F1C690",
"V. c #F5CC95",
"C. c #F8CF97",
"Z. c #F8D098",
"A. c #CCC2B3",
"S. c #CCC5B8",
"D. c None",
"WW c White",
/* pixels */
"D.D.D.D.D.WWD.D.D.D.D.D.D.D.D.D.D.D.D.D.D.D.D.D.D.D.D.D.D.D.D.D.D.D.D.D.D.D.D.D.D.D.D.D.D.D.D.D.D.D.D.D.D.D.D.D.D.D.D.D.D.D.D.D.",
"D.D.D.D.WWWWD.D.D.D.D.D.D.D.D.D.D.D.D.D.D.D.D.D.D.D.D.D.D.D.D.D.D.D.D.D.D.D.D.D.D.D.D.D.D.D.D.D.D.D.D.D.D.D.D.D.D.D.D.D.D.D.D.D.",
"D.D.D.D.WWWWD.D.D.D.D.D.D.D.D.D.D.D.D.D.D.D.D.D.D.D.D.D.D.D.D.D.D.D.D.D.D.D.D.D.D.D.D.D.D.D.D.D.D.D.D.D.D.WWD.D.D.D.D.D.D.D.D.D.",
"D.D.D.D.WWWWD.D.D.D.D.D.D.D.D.D.D.D.D.D.D.D.D.D.D.D.D.D.D.D.D.D.D.D.D.D.D.D.D.D.D.D.D.D.D.D.D.D.D.D.D.D.D.WWWWD.D.D.D.D.D.D.D.D.",
"D.D.D.D.D.D.D.D.D.D.D.D.D.D.D.D.D.D.D.D.D.D.D.D.D.D.D.D.D.D.D.D.D.D.D.D.D.D.D.D.D.D.D.D.D.D.D.D.D.D.D.D.D.WWWWD.D.D.D.D.D.D.D.D.",
"D.D.D.D.D.D.D.D.D.D.D.D.D.D.D.D.D.D.D.D.D.D.D.D.D.D.D.D.D.D.D.D.D.D.D.D.D.D.D.D.D.D.D.D.D.D.D.D.D.D.D.D.WWWWWWD.D.D.D.D.D.D.D.D.",
"D.D.D.D.D.D.D.D.D.D.D.D.D.D.D.D.D.D.D.D.D.D.D.D.D.D.D.D.D.D.D.D.D.D.D.D.D.D.D.D.D.D.D.D.D.D.D.D.D.D.D.D.WWWWWWD.D.D.D.D.D.D.D.D.",
"D.D.D.D.D.D.D.D.D.D.D.D.D.D.D.D.D.D.D.D.D.D.D.D.D.D.D.D.D.D.D.D.D.D.D.D.D.D.D.D.D.D.D.D.D.D.D.D.D.D.D.D.D.D.D.D.D.D.D.D.D.D.D.D.",
"D.D.D.D.D.D.D.D.D.D.D.D.D.D.D.D.D.D.D.D.D.D.D.D.D.D.D.D.D.D.D.D.D.D.D.D.D.D.D.D.D.D.D.D.D.D.D.D.D.D.D.D.D.D.D.D.D.D.D.D.D.D.D.D.",
"D.D.D.D.D.D.D.D.D.D.D.D.D.D.D.D.D.D.D.D.D.D.D.D.D.D.D.D.D.D.D.D.D.D.D.D.D.D.D.D.D.D.D.D.D.D.D.D.D.D.D.D.D.D.D.D.D.D.D.D.D.D.D.D.",
"D.D.D.D.D.D.D.D.D.D.D.D.D.D.D.D.D.D.D.D.D.D.D.D.D.D.D.D.=.@.U v v v v x D.D.D.D.D.D.D.D.D.D.D.D.D.D.D.D.D.D.D.D.D.D.D.D.D.D.D.D.",
"D.D.D.D.D.D.D.D.D.D.D.D.D.D.D.D.D.D.D.D.D.D.D.D.D.D.D.1.i.r.%._ ~ U P L L D.D.D.D.D.D.D.D.D.D.D.D.D.D.D.D.D.D.D.D.D.D.D.D.D.D.D.",
"D.D.D.D.D.D.D.D.D.D.D.D.D.D.D.D.D.D.D.D.D.D.D.D.D.D.,.k.V.V.B.B.N.u.=.@.U m D.D.D.D.D.D.D.D.D.D.D.D.D.D.D.D.D.D.D.D.D.D.D.D.D.D.",
"D.D.D.D.D.D.D.D.D.D.D.D.D.D.D.D.D.D.D.D.D.D.D.D.D.1.k.M.Z.Z.Z.Z.C.M.a.=.{ R m D.D.D.D.D.D.D.D.D.D.D.D.D.D.D.D.D.D.D.D.D.D.D.D.D.",
"D.D.D.D.D.D.D.D.D.D.D.D.D.D.D.D.D.D.D.D.D.D.D.D.=.1.B.C.Z.Z.Z.Z.C.Z.M.<.$.[ m D.D.D.D.D.D.D.D.D.D.D.D.D.D.D.D.D.D.D.D.D.D.D.D.D.",
"D.D.D.D.D.D.D.D.D.D.D.D.D.D.D.D.D.D.D.D.D.D.D.D.@.<.M.Z.Z.Z.Z.Z.C.Z.M.,.=.[ m D.D.D.D.D.D.D.D.D.D.D.D.D.D.D.D.D.D.D.D.D.D.D.D.D.",
"D.D.D.D.D.D.D.D.D.D.WWD.D.D.D.D.D.D.D.D.D.D.D.D.L ( x.Z.Z.Z.Z.Z.C.C.M.1.$.[ m D.D.D.D.D.D.D.D.D.D.D.D.D.D.D.D.D.D.D.D.D.D.D.D.D.",
"D.D.D.D.D.D.D.D.D.D.WWWWD.D.D.D.D.D.D.D.D.D.D.D.B E x.Z.Z.Z.Z.Z.C.M.p.=.=.{ m x D.D.D.D.D.D.D.D.D.D.D.D.D.D.D.D.D.D.D.D.D.D.D.D.",
"D.D.D.D.D.D.D.D.D.D.WWWWD.D.D.D.D.D.D.D.D.D.D.=.U W k.V.Z.Z.Z.C.B.p.=.=.@.) b z v D.D.D.D.D.D.D.D.D.D.D.D.D.D.D.D.D.D.D.D.D.D.D.",
"D.D.D.D.D.D.D.D.D.D.WWWWD.D.D.D.D.D.D.D.D.D.D.k.;.{ 8.z.Z.Z.Z.B.i.<.$.@./ b , 5 x D.D.D.D.D.D.D.D.D.D.D.D.D.D.D.D.D.D.D.D.D.D.D.",
"D.D.D.D.D.D.D.D.D.D.D.D.D.D.D.D.D.D.D.D.D.D.D.C.k.3.=.7.t.t.j.p.,.{ / / C t O * 5 D.D.D.D.D.D.D.D.D.D.D.D.D.D.D.D.D.D.D.D.D.D.D.",
"D.D.D.D.D.D.D.D.D.D.D.D.D.D.D.D.D.D.D.D.D.D.D.V.V.c.=.( A N Q =.$.U v B b e O   X D.D.D.D.D.D.D.D.D.D.D.D.D.D.D.D.D.D.D.D.D.D.D.",
"D.D.D.D.D.D.D.D.D.D.D.D.D.D.D.D.D.D.D.D.D.D.D.r.c.c.<.f.d.9 N $.@.M d d.` % X     D.D.D.D.D.D.D.D.D.D.D.D.D.D.D.D.D.D.D.D.D.D.D.",
"D.D.D.D.D.D.D.D.D.D.D.D.D.D.D.D.D.D.D.D.D.D.D.=.i.u.#.b.n.3 i =.<.h p S.] .       D.D.D.D.D.D.D.D.D.D.D.D.D.D.D.D.D.D.D.D.D.D.D.",
"D.D.D.D.D.D.D.D.D.D.D.D.D.D.D.D.D.D.D.D.D.D.D.D.,.+.C h.v.7 M 1.k.H s A.] .   D.D.D.D.D.D.D.D.D.D.D.D.D.D.D.D.D.D.D.D.D.D.D.D.D.",
"D.D.D.D.D.D.D.D.D.D.D.D.D.D.D.D.D.D.D.D.D.D.D.D.D.U n ..6.G -.z.V.f.X.f.k   D.D.D.D.D.D.D.D.D.D.D.D.D.D.D.D.D.D.D.D.D.D.WWD.D.D.",
"D.D.D.D.D.D.D.D.D.D.D.D.D.D.D.D.D.D.D.D.D.D.D.D.D.D.v P ) @.a.C.C.M.u.W w % D.D.D.D.D.D.D.D.D.D.D.D.D.D.D.D.D.D.D.D.D.D.WWD.D.D.",
"D.D.D.D.D.D.D.D.D.D.D.D.D.D.D.D.D.D.D.D.D.D.D.D.B m b m L +.u.N.N.t.Q > 1 z D.D.D.D.D.D.D.D.D.D.D.D.D.D.D.D.D.D.D.D.D.WWWWD.D.D.",
"D.D.D.D.D.D.D.D.D.D.D.D.D.D.D.D.D.D.D.D.D.D.D.b } 9.5.#.^ P Q _ ~ M 8 5 N U m D.D.D.D.D.D.D.D.D.D.D.D.D.D.D.D.D.D.D.D.WWWWD.D.D.",
"D.D.D.D.D.D.D.D.D.D.D.D.D.D.D.D.D.D.D.D.D.D.D.b >.C.C.i.) m m C V u 4 z Y { P D.D.D.D.D.D.D.D.D.D.D.D.D.D.D.D.D.D.D.D.D.D.D.D.D.",
"D.D.D.D.D.D.D.D.D.D.D.D.D.D.D.D.D.D.D.D.D.D.D.B 5.C.B.y.) m Y @.$.+.^ m Y $.@.+.D.D.D.D.D.D.D.D.D.D.D.D.D.D.D.D.D.D.D.D.D.D.D.D.",
"D.D.D.D.D.D.D.D.D.D.D.D.D.D.D.D.D.D.D.D.D.D.I >.l.N.i.| U ^ <.k.k.k.7.C Y $.$.R D.D.D.D.D.D.D.D.D.D.D.D.D.D.D.D.D.D.D.D.D.D.D.D.",
"D.D.D.D.D.D.D.D.D.D.D.D.D.D.D.D.D.D.D.D.D.x S m.C.x.+.b i +.p.C.Z.Z.g.M B ) @.U z D.D.D.D.D.D.D.D.D.D.D.D.D.D.D.D.D.D.D.D.D.D.D.",
"D.D.D.D.D.D.D.D.D.D.D.D.D.D.D.D.D.D.D.D.D.y G m.V.a.S < ; ( p.C.Z.C.q.2 1 V ) U t O D.D.D.D.D.D.D.D.D.D.D.D.D.D.D.D.D.D.D.D.D.D.",
"D.D.D.D.D.D.D.D.D.D.D.D.D.D.D.D.D.D.D.D.D.* h g.l.2.^ 8 % B e.C.C.z. .& , v C m t O D.D.D.D.D.D.D.D.D.D.D.D.D.D.D.D.D.D.D.D.D.D.",
"D.D.D.D.D.D.D.D.D.D.D.D.D.D.D.D.D.D.D.D.D.. 2 o.2.=.<.F 0 r  .z.z.2.A $ * t x x t O D.D.D.D.D.D.D.D.D.D.D.D.D.D.D.D.D.D.D.D.D.D.",
"D.D.D.D.D.D.D.D.D.D.D.D.D.D.D.D.D.D.D.D.D.. $ c ( 3.c.m.O.: M &.=.U y + X + t x e O D.D.D.D.D.D.D.D.D.D.D.D.D.D.D.D.D.D.D.D.D.D.",
"D.D.D.D.D.D.D.D.D.D.D.D.D.D.D.D.D.D.D.D.D.D.@ ; ! z.V.C.0.: w P P m z 5 % X % = * O D.D.D.D.D.D.D.D.D.D.D.D.D.D.D.D.D.D.D.D.D.D.",
"D.D.D.D.D.D.D.D.D.D.D.D.D.D.D.D.D.D.D.D.D.D.D.o  .C.C.C.0.& , v V V m x = .       D.D.D.D.D.D.D.D.D.D.D.D.D.D.D.D.D.D.D.D.D.D.D.",
"D.D.D.D.D.D.D.D.D.D.D.D.D.D.D.D.D.D.D.D.D.D.D.o H N.N.B.0.: 1 m [ +.) m , X D.D.D.D.D.D.D.D.D.D.D.D.D.D.D.D.D.D.D.D.D.D.D.D.D.D.",
"D.D.D.D.D.D.D.D.D.D.D.D.D.D.D.D.D.D.D.D.D.D.D.D.a l l J ~ N c V { =.+./ c 1 D.D.D.D.D.D.D.D.D.D.D.D.D.D.D.D.D.D.D.D.D.D.D.D.D.D.",
"D.D.D.D.D.D.D.D.D.D.D.D.D.D.D.D.D.D.D.D.D.D.D.D.  X # e P +.A c { ,.1.1.( V D.D.D.D.D.D.D.D.D.D.D.D.D.D.D.D.D.D.D.D.D.D.D.D.D.D.",
"D.D.D.D.D.D.D.D.D.D.D.D.D.D.D.D.D.D.D.D.D.D.D.D.  O e P +.@.u > ( p.M.M.r./ m D.D.D.D.D.D.D.D.D.D.D.D.D.D.D.D.D.D.D.D.D.D.D.D.D.",
"D.D.D.D.D.D.D.D.D.D.D.D.D.D.D.D.D.D.D.D.D.D.D.D.  + y Y $.@.r - ( p.C.C.i.( 8 D.D.D.D.D.D.D.D.D.D.D.D.D.D.D.D.D.D.D.D.D.D.D.D.D.",
"D.D.D.D.D.D.D.D.D.D.D.D.D.D.D.D.D.D.D.D.D.D.D.D.  # y U ) / u < U r.M.V.i.Q % D.D.D.D.D.D.D.D.D.D.D.D.D.D.D.D.D.D.D.D.D.D.D.D.D.",
"D.D.D.D.D.D.D.D.D.D.D.D.D.D.D.D.D.D.D.D.D.D.D.D.  + t v m n z z m ( 8.M.u.E $ D.D.D.D.D.D.D.D.D.D.D.D.D.D.D.D.D.D.D.D.D.D.D.D.D.",
"D.D.D.D.D.D.D.D.D.D.D.D.D.D.D.D.D.D.D.D.D.D.D.D.D.O = q v x v n U { =.r.W w % D.D.D.D.D.D.D.D.D.D.D.D.D.D.D.D.D.D.D.D.D.D.D.D.D.",
"D.D.D.D.D.D.D.D.D.D.D.D.D.D.D.D.D.D.D.D.D.D.D.D.D.D.X , q t y V { =.1.$.h % D.D.D.D.D.D.D.D.D.D.D.WWD.D.D.D.D.D.D.D.D.D.D.D.D.D.",
"D.D.D.D.D.D.D.D.D.D.D.D.D.D.D.D.D.D.D.D.D.D.D.D.D.D.D.O O O 1 m +.i.z.,.P y D.D.D.D.D.D.D.D.D.D.D.WWD.D.D.D.D.D.D.D.D.D.D.D.D.D.",
"D.D.D.D.D.D.D.D.D.D.D.D.D.D.D.D.D.D.D.D.D.D.D.D.D.D.D.D.D.D.q B +.a.B.j.%.U m D.D.D.D.D.D.D.D.D.WWWWD.D.D.D.D.D.D.D.D.D.D.D.D.D.",
"D.D.D.D.D.D.D.D.D.D.D.D.D.D.D.D.D.D.D.D.D.D.D.D.D.D.D.D.D.D.t c ( u.C.C.j.+.c D.D.D.D.D.D.D.D.D.WWWWD.D.D.D.D.D.D.D.D.D.D.D.D.D.",
"D.D.D.D.D.D.D.D.D.D.D.D.D.D.D.D.D.D.D.D.D.D.D.D.D.D.D.D.D.D.O * v -.N.V.m.0.2 D.D.D.D.D.D.D.D.D.WWWWD.D.D.D.D.D.D.D.D.D.D.D.D.D.",
"D.D.D.D.D.D.D.D.D.D.D.D.D.D.D.D.D.D.D.D.D.D.D.D.D.D.D.D.D.D.D.@ = f H l H g @ D.D.D.D.D.D.D.D.D.D.D.D.D.D.D.D.D.D.D.D.D.D.D.D.D.",
"D.D.D.D.D.D.D.D.D.D.D.D.D.D.D.D.D.D.D.D.D.D.D.D.D.D.D.D.D.D.D.D.  . o . . .   D.D.D.D.D.D.D.D.D.D.D.D.D.D.D.D.D.D.D.D.D.D.D.D.D.",
"D.D.D.D.D.D.D.D.D.D.D.D.D.D.D.D.D.D.D.D.D.D.D.D.D.D.D.D.D.D.D.D.D.D.D.D.D.D.D.D.D.D.D.D.D.D.D.D.D.D.D.D.D.D.D.D.D.D.D.D.D.D.D.D.",
"D.D.D.D.D.D.D.D.D.D.D.D.D.D.D.D.D.D.D.D.D.D.D.D.D.D.D.D.D.D.D.D.D.D.D.D.D.D.D.D.D.D.D.D.D.D.D.D.D.D.D.D.D.D.D.D.D.D.D.D.D.D.D.D.",
"D.D.D.D.D.D.D.D.D.D.D.D.D.D.D.D.D.D.D.D.D.D.D.D.D.D.D.D.D.D.D.D.D.D.D.D.D.D.D.D.D.D.D.D.D.D.D.D.D.D.D.D.D.D.D.D.D.D.D.D.D.D.D.D.",
"D.D.D.D.D.D.D.D.D.D.D.D.D.D.D.D.D.D.D.D.D.WWD.D.D.D.D.D.D.D.D.D.D.D.D.D.D.D.D.D.D.D.D.D.D.D.D.D.D.D.D.D.D.D.D.D.D.D.D.D.D.D.D.D.",
"D.D.D.D.D.D.D.D.D.D.D.D.D.D.D.D.D.D.D.D.WWWWD.D.D.D.D.D.D.D.D.D.D.D.D.D.D.D.D.D.D.D.D.D.D.D.D.D.D.D.D.D.D.D.D.D.D.D.D.D.D.D.D.D.",
"D.D.D.D.D.D.D.D.D.D.D.D.D.D.D.D.D.D.D.D.WWWWD.D.D.D.D.D.D.D.D.D.D.D.D.D.D.D.D.D.D.D.D.D.D.D.D.D.D.D.D.D.D.D.D.D.D.D.D.D.D.D.D.D.",
"D.D.D.D.D.D.D.D.D.D.D.D.D.D.D.D.D.D.D.D.WWWWD.D.D.D.D.D.D.D.D.D.D.D.D.D.D.D.D.D.D.D.D.D.D.D.D.D.D.D.D.D.D.D.D.D.D.D.D.D.D.D.D.D.",
"D.D.D.D.D.D.D.D.D.D.D.D.D.D.D.D.D.D.D.D.D.D.D.D.D.D.D.D.D.D.D.D.D.D.D.D.D.D.D.D.D.D.D.D.D.D.D.D.D.D.D.D.D.D.D.D.D.D.D.D.D.D.D.D.",
"D.D.D.D.D.D.D.D.D.D.D.D.D.D.D.D.D.D.D.D.D.D.D.D.D.D.D.D.D.D.D.D.D.D.D.D.D.D.D.D.D.D.D.D.D.D.D.D.D.D.D.D.D.D.D.D.D.D.D.D.D.D.D.D.",
"D.D.D.D.D.D.D.D.D.D.D.D.D.D.D.D.D.D.D.D.D.D.D.D.D.D.D.D.D.D.D.D.D.D.D.D.D.D.D.D.D.D.D.D.D.D.D.D.D.D.D.D.D.D.D.D.D.D.D.D.D.D.D.D."
};
