/* XPM */
static char *chest1x11678030496[] = {
/* columns rows colors chars-per-pixel */
"64 64 34 1 ",
"  c None",
". c black",
"X c gray5",
"o c #101010",
"O c gray8",
"+ c gray10",
"@ c #202020",
"# c gray15",
"$ c gray19",
"% c gray20",
"& c gray24",
"* c gray25",
"= c gray30",
"- c #505050",
"; c gray35",
": c #606060",
"> c gray40",
", c gray44",
"< c gray45",
"1 c #808080",
"2 c gray55",
"3 c gray56",
"4 c gray60",
"5 c #9F9F9F",
"6 c gray65",
"7 c #AFAFAF",
"8 c gray70",
"9 c gray75",
"0 c gray80",
"q c gray81",
"w c #DFDFDF",
"e c #EFEFEF",
"r c gray96",
"t c white",
/* pixels */
"                                                                ",
"                                                                ",
"                                                                ",
"                                                                ",
"                                                                ",
"                                                                ",
"                                                                ",
"                                                                ",
"                                                                ",
"                                                                ",
"                                                                ",
"                                                                ",
"                                                                ",
"                                                                ",
"            ......                                              ",
"          .......................                               ",
"         .......................................  ....          ",
"         ...%>>4.......................................         ",
"         ..20001..0tttttttttttw99991111111**@...........        ",
"        ..=0019*.Xrtttttttttttttt5***********:**o.+%+....       ",
"        ..40009..&t111,11199etttttttttttt0099ttt*.X06....       ",
"        .X00002..1tttttttte99tttttttttttttrttttt<..008....      ",
"        .*0000;..7tttttttttttttttttttttttttttttt<..240=...      ",
"        .>0000#..wttttttttttttttttttttwttttttttt6..,906...      ",
"        .40000..ottttttttttttttttttttt1111:-11199..>000X..      ",
"       ..80004..-tttttttttttttttttttttttttttttttt..%000%..      ",
"       ..00001..1tttttttttttttttttttttttttttttttt@.#000>..      ",
"       .+0000>..9tttttttttttttttttttttttttttttttt*..0001...     ",
"       .%0000*..etttttttttttttttttttttttttttttttt,..0004...     ",
"       .%0000%.ottttttttttttttttttttttttttttttttt2..0004...     ",
"       .*0000+.*ttttttttttttttttttttt99999etttttt9..8000...     ",
"       .>0000..,tttttttttttttttttttttt99999921111:..4000..      ",
"       .>0000..1tttttttttttttttttttttttttttttttttt..4000..      ",
"       .%0000..9tttttttttttttttttttttttttttttttttt..4000..      ",
"       .%0006..209971159999211999ttttttttttttttttt..4006..      ",
"       .%0004..erttttttttttttttttttttttttttttttttt..4004..      ",
"       .#0004..ttttttttttttttttttttttttttttttttttt..4004..      ",
"       ..0004..ttttttttttttttttttttttttttttttttttt..4004..      ",
"       ..0004..ttttttttttttttttttttttttttttttttttt..4001..      ",
"       ..4004..etttttttttttttttttttttttttttttttttt..400>..      ",
"       ..1008..9tttttttttttttttttttttttttttttttttt..000>..      ",
"        .>000..9ttttttttttttttttttttttttttttttttte..000=.       ",
"        .%000X.0rtttttttttttttttttttttttttttttttt9..000#.       ",
"        ..000%.2ttttttttttttttttttttttttttttttttt5.%000..       ",
"        ..400;.1tttttttttttttttttttt0tttttttttttt1.*002..       ",
"        ..;001.*tttttttttttttttttttt-***......@5t*.>00=..       ",
"         .+008..tttttttttttttttttttttttttttttttttX.200X..       ",
"         ..600+.:1111:******&********-15ttttttttw..002..        ",
"         ..=8>#.:tttte99997:%........-0ttttttttt5.*00=..        ",
"          ..646.otttttttt7o............*wttttttt:.*%%...        ",
"          ..*00#.1tttttt0......%+.%.....oettttttXX6,*...        ",
"           ...;,.....@**@...-78o...:0:...-11***%.X=%...         ",
"           ..........O.....<tt*.....tt2...........+X...         ",
"             .....      ...4tt-....%te,...............          ",
"                        ....%1:....$$....           .           ",
"                         ................                       ",
"                          ..............                        ",
"                             ........                           ",
"                                                                ",
"                                                                ",
"                                                                ",
"                                                                ",
"                                                                ",
"                                                                "
};
