/* XPM */
static char *wall_new[] = {
/* columns rows colors chars-per-pixel */
"64 64 215 2 ",
"   c #242424",
".  c #262626",
"X  c #292929",
"o  c #2B2B2B",
"O  c #2D2D2D",
"+  c #2E2E2E",
"@  c #2F2F2F",
"#  c #303030",
"$  c #313131",
"%  c #323232",
"&  c #333333",
"*  c #343434",
"=  c #353535",
"-  c #363636",
";  c #373737",
":  c #383838",
">  c #393939",
",  c #3A3A3A",
"<  c #3B3B3B",
"1  c #3C3C3C",
"2  c #3D3D3D",
"3  c #3E3E3E",
"4  c #3F3F3F",
"5  c #404040",
"6  c #414141",
"7  c #424242",
"8  c #434343",
"9  c #444444",
"0  c #454545",
"q  c #464646",
"w  c #474747",
"e  c #484848",
"r  c #494949",
"t  c #4A4A4A",
"y  c #4B4B4B",
"u  c #4C4C4C",
"i  c #4D4D4D",
"p  c #4E4E4E",
"a  c #4F4F4F",
"s  c #505050",
"d  c #515151",
"f  c #525252",
"g  c #535353",
"h  c #545454",
"j  c #555555",
"k  c #565656",
"l  c #575757",
"z  c #585858",
"x  c #595959",
"c  c #5A5A5A",
"v  c #5B5B5B",
"b  c #5C5C5C",
"n  c #5D5D5D",
"m  c #5E5E5E",
"M  c #5F5F5F",
"N  c #606060",
"B  c #616161",
"V  c #626262",
"C  c #636363",
"Z  c #646464",
"A  c #656565",
"S  c #666666",
"D  c #676767",
"F  c #686868",
"G  c #696969",
"H  c #6A6A6A",
"J  c #6B6B6B",
"K  c #6C6C6C",
"L  c #6D6D6D",
"P  c #6E6E6E",
"I  c #6F6F6F",
"U  c #707070",
"Y  c #717171",
"T  c #727272",
"R  c #737373",
"E  c #747474",
"W  c #757575",
"Q  c #767676",
"!  c #777777",
"~  c #787878",
"^  c #797979",
"/  c #7A7A7A",
"(  c #7B7B7B",
")  c #7C7C7C",
"_  c #7D7D7D",
"`  c #7E7E7E",
"'  c #7F7F7F",
"]  c #808080",
"[  c #818181",
"{  c #828282",
"}  c #838383",
"|  c #848484",
" . c #858585",
".. c #868686",
"X. c #878787",
"o. c #888888",
"O. c #898989",
"+. c #8A8A8A",
"@. c #8B8B8B",
"#. c #8C8C8C",
"$. c #8D8D8D",
"%. c #8E8E8E",
"&. c #8F8F8F",
"*. c #909090",
"=. c #919191",
"-. c #929292",
";. c #939393",
":. c #949494",
">. c #959595",
",. c #969696",
"<. c #979797",
"1. c #989898",
"2. c #999999",
"3. c #9A9A9A",
"4. c #9B9B9B",
"5. c #9C9C9C",
"6. c #9D9D9D",
"7. c #9E9E9E",
"8. c #9F9F9F",
"9. c #A0A0A0",
"0. c #A1A1A1",
"q. c #A2A2A2",
"w. c #A3A3A3",
"e. c #A4A4A4",
"r. c #A5A5A5",
"t. c #A6A6A6",
"y. c #A7A7A7",
"u. c #A8A8A8",
"i. c #A9A9A9",
"p. c #AAAAAA",
"a. c #ABABAB",
"s. c #ACACAC",
"d. c #ADADAD",
"f. c #AEAEAE",
"g. c #AFAFAF",
"h. c #B0B0B0",
"j. c #B1B1B1",
"k. c #B2B2B2",
"l. c #B3B3B3",
"z. c #B4B4B4",
"x. c #B5B5B5",
"c. c #B6B6B6",
"v. c #B7B7B7",
"b. c #B8B8B8",
"n. c #B9B9B9",
"m. c #BABABA",
"M. c #BBBBBB",
"N. c #BCBCBC",
"B. c #BDBDBD",
"V. c #BEBEBE",
"C. c #BFBFBF",
"Z. c #C0C0C0",
"A. c #C1C1C1",
"S. c #C2C2C2",
"D. c #C3C3C3",
"F. c #C4C4C4",
"G. c #C5C5C5",
"H. c #C6C6C6",
"J. c gray78",
"K. c #C8C8C8",
"L. c #C9C9C9",
"P. c #CACACA",
"I. c #CBCBCB",
"U. c #CCCCCC",
"Y. c #CDCDCD",
"T. c #CECECE",
"R. c #CFCFCF",
"E. c #D0D0D0",
"W. c #D1D1D1",
"Q. c #D2D2D2",
"!. c #D3D3D3",
"~. c #D4D4D4",
"^. c #D5D5D5",
"/. c #D6D6D6",
"(. c #D7D7D7",
"). c #D8D8D8",
"_. c #D9D9D9",
"`. c #DADADA",
"'. c #DBDBDB",
"]. c #DCDCDC",
"[. c #DDDDDD",
"{. c #DEDEDE",
"}. c #DFDFDF",
"|. c #E0E0E0",
" X c #E1E1E1",
".X c #E2E2E2",
"XX c #E3E3E3",
"oX c #E4E4E4",
"OX c gray90",
"+X c #E6E6E6",
"@X c #E7E7E7",
"#X c gray91",
"$X c #E9E9E9",
"%X c #EAEAEA",
"&X c #EBEBEB",
"*X c #ECECEC",
"=X c #EDEDED",
"-X c #EEEEEE",
";X c #EFEFEF",
":X c #F0F0F0",
">X c #F1F1F1",
",X c #F2F2F2",
"<X c #F3F3F3",
"1X c #F4F4F4",
"2X c #F5F5F5",
"3X c #F6F6F6",
"4X c #F7F7F7",
"5X c #F8F8F8",
"6X c #F9F9F9",
"7X c #FAFAFA",
"8X c #FBFBFB",
"9X c #FCFCFC",
"0X c #FDFDFD",
"qX c #FEFEFE",
"wX c #FFFFFF",
/* pixels */
"L E.E.E.T.T.T.J.S.J.J.S.K.S.n.n.n.n.n.j.j.t.4.$. .( U S p n S U F v r 7 q f j S L Q ) O.$.,.q.t.d.d.L E._.}._.}.}.T.c.u.q.q.u.C.",
"8.wXwXwXwXwXwXwXwXwXwXwXwXwXwXwXwXwXwXwXwXwXwXwXwXwXwXwXT.wXwXwXwXwXwXwXwXwX7XwXwXwXwXwXwXwXwXwXwXwX8.wXwXwXwXwXwXwXwXwXwXwXwXwX",
"O.S.J.J.J.C.C.C.C.C.C.C.S.S.K.T./.E.J.C.j.j.u.u.q.,.$.$.( ( Q L V V n V n r     % 2 q f v V S U ( ( n 8.q.t.t.j.d.c.c.n.S.S.T.T.",
"&X&X>X>X>X>X3X7X3X7X7X3X*X/.3X>X>X*X&X>X>X7X7X3X*X}.S.S.S.K.K./._.XXOXXXXXOX*X>X7X7XwXwXwXwXwXwXwX7X3X3X&X>X>X>X>X&X&X&X&X&X&X&X",
"wXwXwX7X7X7X3X3X7X3X3X3XXX_.>X>X*X*X&XXXXX>X3XOX_.}.OXOX>X*X>X>X3X3X7X7X7X7X7X7X7X3X7X3X>X>X>X>X>X>X3X3XOX3X3X3X7X7X3X3X>X>X3X3X",
"wXwXK.t.t.q.8.8.8.8.q.u.q.q.q.q.4.8.t.t.j.c._._.S.C.n.j.4.4.j.t.t.4.-.$.] ( F j n v j j f f f f f f V S S V q V U Q )  . .$.) -.",
"wXwXwXwXwXwXwXwXwXwXwXwXwXwXwXwXwXwXwXwXwXwX7XwXwXwX7XwX3X*XwXwXwXwXwXwXwXwXwXwXwXwXwXwXwXwXwXwXwXwXwXwXwXwX7XwXwXwXwXwXwXwX}.}.",
"_.XXOXOXOXXX4.v v v v O.>XOXj.t.O.f p r 7 q ; % % % % % < < ; % % 2 7 2 2 r 7 7 r f v j n F U Q ) ] ) ] Q L F Q ( V $.u.C.K.n.c.",
"c.n.C.J.K._.*X7XwXwXwXwXwXwX7X7XwXwXwXwXwXwX7XwXwX7XwX*XwX7X7X7X7X7X7X7X7X3X3X3XT.3X3X7XwXwXwXwXwXwXwXwXwXwXwXwXwXwX/.n.n.n.n.n.",
"wXwXwXwXwXwX&XE.E.E._.}.}.}.}.}.OXOXOXOX*X>X3X7XwXwXwXOXwXwXwXwXwXwX3X3X*X&XOX}.J.E.T.J.K.K.J.J.J.J.T./.E.E./.}.XX*XwXwXwXwXwXwX",
",.8.t.q.u.j.] Q ) )  .) ) U f n v f f q r 2 7 7 7 q q 7 p p v j f f v j v n V S F U Q )  .O.-.4.8.t.u.] q.4.-. .Q F 4.$.] ) )  .",
"wXwXwXwXwXwXwXwXwXwXwXwXwXOXE.wXwXwXwXwXwXwXwXwXwXwXwXwXwXwXwXwXwXwXwXwXwXwXwXwXwXwXwXwXwXwXwXwXwXwX3X&X>X>X>X>X>XwXwXwXwXwXwXwX",
"OXXXOX*XOX/.c.$.( ( ( ( ( L F  .-.-.-.-.-.-.-.-.-.-.-.-.-.-.-.-. . . . .] ( ( L F S v p 7 2 % X X X X % ; 2 q p v OX7X7X7XwX7X7X",
",.4.t.u.j.c.C.C.C.C.n.C.c.j.c.j.d.t.t.t.t.t.t.t.t.u.d.f t.j.j.c.C.C.J.K.K.K.K.T././.E./.d.&XwXwXwXwXwXwXwXwXwXwXwX4. .]  .]  .] ",
"wX7X*XXX/.S.d.8.-.8.u.c.C.S.K.E.E./._._._./.T.E.K.S.C.f q.8.8.q.q.t.d.d.d.d.d.d.u.d.d.t.8.t.d.c.n.S.T._.XX*X3XwXwXwXwXwXwXwXwXwX",
"F U ] $.8.u.c.n.n.j.t.4.-.$.$. .] ] ] ( U Q L v Q ]  .O.$.$.O.$.O.O.] ] ] ] ] ] ] ] ] ] ) ] F ] ( Q L S n f p 7 7 7 % 2 q 7 q r ",
"wXwXwXwXwXwXwXwXwXwXwXwXwXwXwXwXwXwXwXwXwXwX3XT.wXwXwXwXwXwXwXwXwXwXwXwXwXwXwXwXwXwXwXwXwXwXS.wXwXwXwXwXwXwXwXwXwXwXc.3XwXwXwXwX",
"C.j.j.u.q.4.O.2 ; < 7 p S ) ,.u.C./.&X>X3X7X*XS.3X3X>X*X*X&XOX}._./.K.J.S.n.c.d.t.q.4.4.$.$. .$.$.$.$.$.-.4.4.q.t.d.-.d.j.j.d.j.",
"t.d.c.C.K.E.XX7XwXwX>X_.S.t.$.( S j r q 7 7 < % ; 7 7 2 q 7 r p f v n 7 S U (  .$.-.,.8.8.8.q.8.8.8.8.8.8.8.8.8.8.,.-.-.,.4.8.8.",
"Q ] -.4.u.d.c.C.C.c.u.8.,.$.O.O.-.-.q.d.S./.*X7XwXwXwXwXwXwXwXwXwXwXwX}.wXwXwXwXwXwX7X7X3X3X>X*XOXXX/.K.C.c.u.8.4.-.$. .( Q L S ",
"K.K.C.j.t.4.$. . . . .O.-.4.8.Q 8.,.$.) L f < ; % ; 7 p j j v j f r q 7 ; ; % ; % ; % < < 2 7 7 r j v S L (  .-.8.u.j.4.K.K.T.K.",
"wXwXwXwXwXwXwXwXwXwXwXwXwXwXwXK.wXwXwXwXwXwXwXwX7X7X*XOXXX_././.}.}.&X&X3X7X7X7XwX7XwXwXwXwXwXwXwXwXwXwXwXwXwXwXwXwXwXwXwXwXwXwX",
"S S S S S S S S S S F U Q ] $.4.t.c.J.E.XX&X>XwXwXwXwXwXXXT.J.C.n.d.u.q.8.-.-.O.O.) ) U U U S S S S L U U U L j v v f v v v v v ",
"/.] T.E./.}.}.}.}.}./.E.E.T.J.J.J.n.n.n.c.j.c.J.T.&XwXwXC.q.u.4.j.E.E.J.J.J.J.J.E.E._.}.}._.}.}.}.E.J.8.E.}.XX>X3X7X*XE._.}.&X&X",
"wXd.wXwXwXwXwXwXwXwXwXwXwXwXwXwXwXwXwXwXwXwXwXwXwXwXwXwXwXwXwXOX/.wXwXwXwXwXwXwXwXwXwXwXwXwXwXwXwXwXwX*X*XOXOX}.OXOX*XwXwXwXwXwX",
"/.( u.d.,.j ; ; 7 q q 7 7 < 7 r r j j V S L L Q ( Q ] ] ]  .$.O.) u.j.j.j.j.j.j.u.t.4.4.8.q.-.,.8.8.-.-.O.] ( F V j f p E.wXwXwX",
"&X*X&X>XwXwXwXwXwXwXwXwXwXwX7X3X4.*X*X*X*X*XOXXXXXXXXXXXXXXXXXOX*X*XXX}._._._.}.OX*X7XwXwXwXOX&XwXwXwXwXwXwXwXwXwXwXwXwXwX&XXXXX",
"d.j.c. .O. .O.$.d.7XwXwXwXwXwXwX/.d.d.d.q.u.d.t.t.d.d.n.n.c.c.c.c.c.c.j.u.q.8.-. .( L S n f r q < < < < 7 r f V U ) O.-.$.C.J.n.",
"wXwXwXE.T.}.&X&XwXwXwXwXwXwXwXwXwXwXwXwXwXwXwXwXwXwXwX3X>X>X&X ._.&X&X&X&X&X&X&X3X3XwX7X>X&XOX}./.E.T.T./.}.OXOXOX_.J.n.t.}.wXwX",
"/.c.v S V j q ; O ; 2 q 7 q q f v V Q ] -.( ,.,.4.q.t.u.j.c.n.d.K.7XwXwXwX3XE.wXwXK. . .O.O.$.$.,.r $.] ) Q U S V n V ] U L ( 4.",
"7X_.n.J.C.OX>XwX7X3X3X3X3X3X3XwXwXwXwXwX3Xt.wXwXwXwXwXwXwXwXwXwXwXwXwXwXwX&X8.wXwXwXwXwXwXwXwXwXwX] wXwXwXwXwXwXwXwX3X_.E.E.OXwX",
"*XwXwXwX7X3X>X3X>X>X>X>X>X>X3X*XOX}._.}.C.S.wXwX7XwXwXwXwXwX3XXX/.S.c.q.-.( q  .q.OXwXE._.OX_.T.J.S T.E.}.OX>X7XwXwXwXwXwXwXwXwX",
"j r < < < 2 r j V L (  .$.,.8.q.d.c.Q C.T.wXwXwXXXd.t.q.,.$.-.4.v C.J.T./._.OX*X>XwXwXE.d.d.d.t.q.,.$.O.) ( Q S S F F S j V V v ",
"wXwXwXwXwXwXwXwXwXwXwXwXwXwXwXwXwX3Xj.wXwXwXwXwXwXwXwXwXwXwXwXwXO.wXwXwXwXwXwXwXwXwXwXwXwXwXwXwXwXwXwXwXwXwXwXwXwXwXwXwXXX&XwXwX",
"O.$.$.O.( v p r f v S U ( ] $.,.,.O.) d.j.j.n.C.S.K.K.E.E./.XX}.) /./././.E.T.T.T.T.T.T.T.T./._.}.XX}.E.S.C.n.n.j.j.j.j.4.$. .] ",
"S.S.C.c.S.T._.XX&X&X>X>X>X>X>X>X*X&X&XOX}.XXXXXX}././._./._._._._._._.XXOXOX&X&X&X&X&X&X&XS.&X&XXXOXXX}._.&X*X*X}.C.u.u.t.c.C.T.",
"7XwXwXwXwXwXwX7X7X7X7X7X7X7X7X7XwX7X7X7X*XwXwXwXwXwXwXwXwXwXwXwXwXwXwXwXwXwXwXwXwXwXwXwXwXK.7X7X7X7X7X3X3X3X>X3X>X*XOXXX*X3X3X3X",
"q.-. .( L F S q j j j j j j j j f j j f j v S Q ) ] O.-.,.q.( u.>XwXXXq.q.q.4.,.,.,.,.,.-.$.-.4.4.,.-.-.-.-.$.,.-.-.$.$.-.Q 8.8.",
"wXwXwXwXwXwXwXS.wXwXwXwXwXwXwXwXwXwXwXwXwX3X/.wXwXwXwXwXwXwXJ.wXwXwXwXwXwXwXwXwXwXwXwXwXwXwXwXwXwXwXwXwXwXwXwXwXwXwXwXwXwX}.wXwX",
"V U Q  .O.O.O.( ,.,.,.,.,.,.,.,.,.,.,.,.,.-.8.J.T.E._.XXOX*Xc.*X*X3X3X3XwXwXwXwXwX*XOX}._.E.J.S.c.d.u.q.4.-.O.,.,. .S f q p f j ",
"7X7X3X3XE.t.q.d.j.n.S.J.S.J.C.n.t.d.t.q.,.,.$.O.O.O.O.$.4.4.4.8.t.u.d.j.n.n.}.wXwXt.4.q.t.d.n.C.J.K.E.E._.}.OXOXj.OX*X&X>X3X3X7X",
"wXwXwXwX7X*XXX}.OX&X>X3X7XwXwXwX/.wXwXwXwXwXwXwXwXwXwXwXwXwXwXwXwXwXwXwXwXwXwXwXwXwXwXwXwXwXwXwXwXwXwXwXwXwXwXwX_.wXwX}.wXwXwXwX",
"f v V n n n v p 7 < < ; ; 2 2 q q r f v n n V F U Q ( ) ] O.$.$.,.,.q.q.t.q.d.d.d.d.u.t.8.8.,.O.O. . .-.-.O.Q n q < O ; < 2 q q ",
"wXwXwXwXwXwXwXwXwXwXwXwXwXwXn.wXwXwXwXwXwXwXwXwXwXwXwXwXwXwXwXwXwXwXwXwXwXwXwXwXwXwXwXwXwXwXwXwX7Xu.XXXX&X&X>X3X3XwXwXwXwXwXwXwX",
"8.8.8.8.8.8.8.4.8.8.8.8.8.8.] /.OX*X7X7XwXwX7X7XwX7X7X7X7X7X7X7X7X7X7X7X7X7X7X*X*X>X&XXXOX}._./._.c.E._./.XXXX&XXXn.c.d.u.u.q.8.",
"u.j.n.C.C.n.j.j.j.t.q.4.-.$.) L V f r q f q n S F F L L U ( Q ( ]  . .$.$.-.4.4.4.q.t.u.t.u.j.j.j.t.t.8.4.$.O.] ]  .-.r $.,.4.4.",
"K.E.T._._.XX&XwXwXwXwXwXwXwXwXwXwXwXwXwXwX/.wXwXwXwXwXwXwXwXwXwXwXwXwXwX>XOXXX_._._._._._.}.OXOX*X>XwXwXwXwXwXwXwX>X_.F c.n.n.c.",
"] ] ( Q L S V ( Q ) U L F V S v n n n v v j V S S F j F Q Q ] )  .] ] ) O.-.,.8.t.q.t.q.q.t.4.,.-.$.]  .O.$.F F S V F F Q Q ) ] ",
"wXwXwXwXwXwXwXwX3X7XwXwXwXwXwXwXwXwXwXwXwXwXwXwXwXwXE.wXwXwXwXwXwXwXwXwXwXwXwXwXwXwXwXwXwXwXwXwXwXwXwXwXwXwXC.wXwXwXwXwXwXwXwXwX",
">X>X&XXXXXE.E././.E./.E.}.}.}.}.}.XXOX&X&X&X&X&XOX}.K.}.XX/.E./.T.K.J.S.C.n.j.d.t.8.,.-.O. .O.O. .O.$.-.,.,.S j./.*X3X7X7X3X3X3X",
"j f f j V S S S S S V S S S p L U U U U ( ) ) ) ) ] O. . .O.,.-.,.8.8.t.u.c.C.J.E.}.&X>XXXwXwXwXwXwXwXwXwX3XOXK.U S ; % 2 2 ; < ",
"wXwXwX>XwXwXwX>X>X*X>X>X>X>Xn.3X7X7X3X>X*XXXE.J.c.q.4.-. . . . .$.-.8.u.c.S.T._.XXXX*X*X/.>X>X>X3X3X3X3X7X7X7XwXXXwXwXwXwXwXwXwX",
"( L F V j q O % j r r q 7 < ; ; ; % % % < r n U  .4.t.O.C.S.C.n.c.j.t.8.-.] ( L V V v j v n n n V V S n n V n v r 2 7 j S L L L ",
"T./.XX&X3X7X7X&XwXwXwXwXwXwXwXwXwXwXwXwXwXwXwXwXwXwXwXwXwXwXwXwXwXwXwXwXwXwXwXwXwXwXwXwXwXwXwXwXwXwXwXwXwXwXwXwXwX7XXXK.K.J.C.S.",
"S.n.n.n.c.c.c.4.S.J.S.S.S.n.j.d.u.q.4.,.$.O.) ) U U L S S U U ) )  .) ) Q F V j j f j j n n V L (  .-.4.q.d.n.J./.*XwXwX7XOX_.E.",
"d.j.d.q.t.q.8.,.,.O.$.$.O.$.,.4.q.d.O.n.n.S.J.J.T.E.E./.E.E./.K.J.u.] J.K./.XX*X3X7X7X7X7X7X3X&X/.J.( ,. .( Q ) $.d.&XwX_.$.,.4.",
"wXwXwXwXwXwXwXwXwXwXwXwXwXwXwXwXwXwX&XwXwXwXwXwXwXwXwXwXwXwXwXwXwX>Xn.wXwXwXwXwXwXwXwXwXwXwXwXwXwXwX/.wXwXwXwXwXwXwXwXwXwXwXwXwX",
"n.n.S.J.E.E.J.S.n.u.8.$.) ) S ] O. .( U L U j.wXwXwXwXwXwXwXwXwX&Xn.O.C.C.n.j.u.8.4.$.O. .) ) U L F S V v j j p j U O.-.4.8.t.q.",
"_./.T.J.J.S.S.T./.XX&X3XwXwXK.wXwXwXwXwXwXwXwXwXwXwXwX7X3X7X7X3X7X*XOXXXXXXXOX*X*X3X>XwXwX7X3X&XE.,.XXXX_._.OX>X3X&X}./._._._._.",
"K.S.c.d.t.8.-.O.] ( U L S S v v v v v n n S V F ] ,.$.j.j.u.u.u.t.q.q.t.d.d.d.4.-./.wXwXwXwXwXwXwX8.d.d.c.n.c.C.J.S.S.T.T.K.T./.",
"_./././._.XX}.}.}.XX&X}././._._._.XX&X&X*X&XXX/.S.d.8.*XwXwXwXwXwXwXwXwXwXwXwXwXwXwXwXwXwXwXwXwXwXwXwXwXwX3X3X3X3X*X&X&XOXXX}.K.",
"wXwXwXwXwX/.wXwXwX-.U L U U Q ( n r V S F F S n j V O.4.q.q.q.d.S.7XwXc.] F n v v v v v v v n S S S U ) ] Q $.,.,.q.q.d.j.j.c.C.",
"wXwXwXwXwX-.3XwXwXwXwXwXwXwXwXwXXX8.wXwXwXwXwXwXwX3XJ.u.u.K.&XwX&XwX7Xc.u.J._.XX&X&X*X>X3X>XwXwXwXwXwXwXwX-.wXwXwXwXwXwXwXwXwXwX",
"K.u.,.O.O.p O.8.u.n.K.E.}.OXOX}.}.S T.J.J.J.S.J.S.J.S.J.n.n.n.d.,.d.d.d.d.n.n.n.n.C.J.S.J.J.S.J.S.n.n.c.d.F d.d.d.d.c.C.J.E.T./."
};
